<?xml version="1.0" encoding="utf-8"?>
<!-- Generator: Adobe Illustrator 19.0.0, SVG Export Plug-In . SVG Version: 6.00 Build 0)  -->
<svg version="1.1" xmlns="http://www.w3.org/2000/svg" xmlns:xlink="http://www.w3.org/1999/xlink" x="0px" y="0px"
	 viewBox="0 0 771.7 318.5" style="enable-background:new 0 0 771.7 318.5;" xml:space="preserve">
<style type="text/css">
	.st0{display:none;fill:#E8E8E8;}
	.st1{fill:#FFFFFF;}
	.st2{fill:#E8E8E8;}
</style>
<g id="Layer_4">
	<rect id="XMLID_3_" x="-568.3" y="-214" class="st0" width="2000" height="788"/>
</g>
<g id="Layer_1">
	<g id="XMLID_15_">
		<path id="XMLID_16_" class="st1" d="M60.2,317.6H49.1l-4.3-10.1l-29.6-0.1l-4.3,10.2H0l23.4-55.2l6.8-15.9l6.8,15.9L60.2,317.6z
			 M40.3,296.7l-10.1-24l-10.1,24H40.3z"/>
		<path id="XMLID_19_" class="st1" d="M123.9,317.8H79.2v-67.1h10.9v55.8h33.8V317.8z"/>
		<path id="XMLID_21_" class="st1" d="M154.5,317.8h-11.2v-67.1h11.2V317.8z"/>
		<path id="XMLID_23_" class="st1" d="M206,317.7c-18.5,0-33.5-15-33.5-33.5c0-18.5,15-33.5,33.5-33.5c4,0,7.9,0.7,11.6,2.1
			c3.5,1.3,6.7,3.2,9.6,5.6l0.1,0.1l-0.1,0.1l-8.9,7l-0.1,0c-0.1-0.1-0.3-0.2-0.5-0.3c-1-0.6-2-1.2-3-1.6l0,0
			c-2.8-1.2-5.8-1.9-8.8-1.9c-12.2,0-22.2,10.1-22.2,22.5c0,12.4,9.9,22.5,22.2,22.5c4.6,0,9.1-1.4,12.8-4.2l0.1,0l0.1,0l8.9,7
			l-0.1,0.1c-0.7,0.6-1.5,1.2-2.3,1.8C219.8,315.6,213,317.7,206,317.7z M218.8,302.7c-3.6,2.6-8.1,4.2-12.9,4.2
			c-12.3,0-22.2-10.1-22.2-22.6c0-12.5,10-22.6,22.2-22.6c3.1,0,6.1,0.7,8.8,1.9c0,0,0,0,0,0c1,0.5,2,1,3,1.6
			c0.2,0.1,0.3,0.2,0.5,0.3l8.9-6.9c-2.9-2.3-6.1-4.2-9.6-5.5c-3.6-1.3-7.5-2.1-11.6-2.1c-18.4,0-33.4,14.9-33.4,33.4
			c0,18.4,14.9,33.4,33.4,33.4c7.3,0,14-2.3,19.4-6.2c0.8-0.6,1.5-1.2,2.3-1.8L218.8,302.7z M217.5,253.1c3.4,1.3,6.6,3.1,9.5,5.5
			l-8.7,6.8c-0.1-0.1-0.3-0.2-0.4-0.3c-1-0.6-2-1.2-3-1.6l0,0h0c-2.8-1.2-5.8-1.9-8.9-1.9c-12.3,0-22.3,10.2-22.3,22.7
			c0,12.5,10,22.7,22.3,22.7c4.6,0,9.1-1.4,12.9-4.2l8.7,6.8c-0.7,0.6-1.4,1.2-2.2,1.7c-5.7,4.1-12.4,6.2-19.4,6.2
			c-18.4,0-33.3-14.9-33.3-33.3S187.6,251,206,251C210,251,213.9,251.7,217.5,253.1z"/>
		<path id="XMLID_27_" class="st1" d="M291.6,317.6h-45.8v-66.9h45.8v10.3h-34.7V278h26v10.9h-0.1l-25.7-0.2v18.1l34.6,0.2V317.6z"
			/>
		<path id="XMLID_29_" class="st1" d="M407.9,317.6h-11.1l-4.3-10.1l-29.6-0.1l-4.3,10.2h-10.9l23.4-55.2l6.8-15.9l6.8,15.9
			L407.9,317.6z M388,296.7l-10.1-24l-10.1,24H388z"/>
		<path id="XMLID_32_" class="st1" d="M458.7,318.3c-9.6,0-18.7-4.1-25-11.3c-6.5-7.3-9.3-17.3-7.9-27.9
			c1.9-14.7,13.3-26.4,27.7-28.6c9.2-1.4,18.3,1.1,25.5,6.9l0.1,0.1l-0.1,0.1l-7.8,8l-0.1-0.1c-3.4-3.2-8.9-4.6-12.9-4.6
			c-5.4,0-11,2.5-15.4,6.9c-4.5,4.5-7.2,10.5-7.2,16c0,6.1,2.6,12.2,7.1,16.8c4.4,4.5,10,7.1,15.4,7.1c0,0,0,0,0.1,0
			c7.8,0,15.3-4.6,18-9l-0.1-18.7h0.1l10.4,0v0.1l0.1,37.8l-0.1-0.1l-7.5-6.4C472.9,317.1,464.6,318.3,458.7,318.3z"/>
		<path id="XMLID_34_" class="st1" d="M552,317.6h-45.8v-66.9H552v10.3h-34.7V278h26v10.9h-0.1l-25.7-0.2v18.1L552,307V317.6z"/>
		<path id="XMLID_36_" class="st1" d="M618.2,318.5l-0.2-0.2l-36.2-40l-0.2,39.3h-10.2v-0.1l0.2-68.5l0.2,0.2l35.9,40.5v-39.1
			l10.8,0v0.1L618.2,318.5z"/>
		<path id="XMLID_38_" class="st1" d="M669.9,317.7c-18.5,0-33.5-15-33.5-33.5c0-18.5,15-33.5,33.5-33.5c4,0,7.9,0.7,11.6,2.1
			c3.5,1.3,6.7,3.2,9.6,5.6l0.1,0.1l-0.1,0.1l-8.9,7l-0.1,0c-0.1-0.1-0.3-0.2-0.5-0.3c-1-0.6-2-1.2-3-1.6l0,0
			c-2.8-1.2-5.8-1.9-8.8-1.9c-12.2,0-22.2,10.1-22.2,22.5c0,12.4,9.9,22.5,22.2,22.5c4.6,0,9.1-1.4,12.8-4.2l0.1,0l0.1,0l8.9,7
			l-0.1,0.1c-0.7,0.6-1.5,1.2-2.3,1.8C683.7,315.6,676.9,317.7,669.9,317.7z M682.7,302.7c-3.6,2.6-8.1,4.2-12.9,4.2
			c-12.3,0-22.2-10.1-22.2-22.6c0-12.5,10-22.6,22.2-22.6c3.1,0,6.1,0.7,8.8,1.9c0,0,0,0,0,0c1,0.5,2,1,3,1.6
			c0.2,0.1,0.3,0.2,0.5,0.3l8.9-6.9c-2.9-2.3-6.1-4.2-9.6-5.5c-3.6-1.3-7.5-2.1-11.6-2.1c-18.4,0-33.4,14.9-33.4,33.4
			c0,18.4,14.9,33.4,33.4,33.4c7.3,0,14-2.3,19.4-6.2c0.8-0.6,1.5-1.2,2.3-1.8L682.7,302.7z M681.4,253.1c3.4,1.3,6.6,3.1,9.5,5.5
			l-8.7,6.8c-0.1-0.1-0.3-0.2-0.4-0.3c-1-0.6-2-1.2-3-1.6l0,0h0c-2.8-1.2-5.8-1.9-8.9-1.9c-12.3,0-22.3,10.2-22.3,22.7
			c0,12.5,10,22.7,22.3,22.7c4.6,0,9.1-1.4,12.9-4.2l8.7,6.8c-0.7,0.6-1.4,1.2-2.2,1.7c-5.7,4.1-12.4,6.2-19.4,6.2
			c-18.4,0-33.3-14.9-33.3-33.3s14.9-33.3,33.3-33.3C673.9,251,677.7,251.7,681.4,253.1z"/>
		<path id="XMLID_42_" class="st1" d="M735,317.9l0-0.1l-0.1-34.2l-25.3-32.7l0.2,0l13.3,0l0,0l17.4,22.2l17.3-22.5h0.1l13.7,0
			l-0.1,0.2l-25.1,33l0.1,34.1l-0.1,0L735,317.9z"/>
	</g>
	<g id="XMLID_11_">
		<path id="XMLID_12_" class="st1" d="M413.7,199.6h-28.8l-11-26.1l-76.8-0.3l-11.2,26.5h-28.3l60.6-142.9l17.5-41.3l17.5,41.3
			L413.7,199.6z M362,145.4l-26.3-62.1l-26.3,62.1H362z"/>
	</g>
	<g id="XMLID_7_">
		<path id="XMLID_8_" class="st1" d="M545.1,199.6h-28.8l-11-26.1l-76.8-0.3l-11.2,26.5h-28.3l60.6-142.9l17.5-41.3l17.5,41.3
			L545.1,199.6z M493.5,145.4l-26.3-62.1l-26.3,62.1H493.5z"/>
	</g>
	<polygon id="XMLID_6_" class="st1" points="400.7,130 361.2,35.5 400.7,0 	"/>
	<polyline id="XMLID_5_" class="st2" points="400.7,0 400.7,130 440.2,35.5 	"/>
</g>
</svg>
